<svg xmlns="http://www.w3.org/2000/svg" viewBox="0 0 800 450" width="800" height="450" role="img" aria-label="Ícone de um trator, representando o agronegócio por trás do ERP VM Agro Digital.">
  <defs>
    <linearGradient id="bg" x1="0" y1="0" x2="1" y2="1">
      <stop offset="0%" stop-color="#1c1c1c" />
      <stop offset="100%" stop-color="#101010" />
    </linearGradient>
    <clipPath id="card">
      <rect x="0" y="0" width="800" height="450" rx="24" />
    </clipPath>
  </defs>

  <g clip-path="url(#card)">
    <rect width="800" height="450" fill="url(#bg)" />

    <circle cx="400" cy="225" r="170" fill="#4fc3f7" fill-opacity="0.1" />

    <g transform="translate(256 81) scale(12)" fill="none" stroke="#4fc3f7" stroke-width="1" stroke-linecap="round" stroke-linejoin="round">
      <path d="m10 11 11 .9a1 1 0 0 1 .8 1.1l-.665 4.158a1 1 0 0 1-.988.842H20" />
      <path d="M16 18h-5" />
      <path d="M18 5a1 1 0 0 0-1 1v5.573" />
      <path d="M3 4h8.129a1 1 0 0 1 .99.863L13 11.246" />
      <path d="M4 11V4" />
      <path d="M7 15h.01" />
      <path d="M8 10.1V4" />
      <circle cx="18" cy="18" r="2" />
      <circle cx="7" cy="15" r="5" />
    </g>

    <rect x="0.75" y="0.75" width="798.5" height="448.5" rx="23.5" fill="none" stroke="#2b2b2b" stroke-width="1.5" />
  </g>
</svg>
